<?xml version="1.0" standalone="no"?>
<!DOCTYPE svg PUBLIC "-//W3C//DTD SVG 20010904//EN"
 "http://www.w3.org/TR/2001/REC-SVG-20010904/DTD/svg10.dtd">
<svg version="1.0" xmlns="http://www.w3.org/2000/svg"
 width="225.000000pt" height="225.000000pt" viewBox="0 0 225.000000 225.000000"
 preserveAspectRatio="xMidYMid meet">

<g transform="translate(0.000000,225.000000) scale(0.100000,-0.100000)"
fill="#000000" stroke="none">
<path d="M1332 503 c3 -79 5 -88 23 -90 11 -2 14 0 8 3 -9 4 -13 32 -13 90 0
51 -4 84 -10 84 -7 0 -10 -32 -8 -87z"/>
<path d="M460 475 l0 -66 63 3 62 3 0 60 0 60 -62 3 -63 3 0 -66z m118 28 c-2
-10 -14 -20 -28 -22 l-25 -4 25 -6 c16 -5 25 -14 25 -26 0 -17 -8 -21 -47 -23
l-48 -3 0 50 0 51 51 0 c43 0 50 -3 47 -17z"/>
<path d="M630 475 c0 -42 4 -64 10 -60 6 3 10 30 10 60 0 30 -4 57 -10 60 -6
4 -10 -18 -10 -60z"/>
<path d="M692 531 c-9 -5 -12 -25 -10 -62 l3 -54 54 -3 c37 -2 57 1 62 10 13
20 11 92 -3 106 -14 14 -86 16 -106 3z m96 -58 l-3 -48 -40 0 -40 0 -3 48 -3
47 46 0 46 0 -3 -47z"/>
<path d="M840 475 c0 -37 4 -65 10 -65 6 0 10 25 10 55 l0 55 45 0 45 0 0 -55
c0 -30 5 -55 10 -55 14 0 12 104 -2 118 -7 7 -36 12 -65 12 l-53 0 0 -65z"/>
<path d="M1014 480 l1 -65 58 -3 57 -3 -2 68 -1 68 -6 -60 -6 -60 -45 0 -45 0
-6 60 -6 60 1 -65z"/>
<path d="M1182 531 c-9 -5 -12 -25 -10 -62 l3 -54 56 -3 c43 -2 58 1 62 12 4
9 2 18 -2 21 -5 3 -11 -2 -15 -10 -6 -16 -62 -20 -84 -6 -8 5 -12 23 -10 47 3
38 4 39 47 42 28 2 47 -1 52 -10 4 -7 12 -9 16 -4 24 23 -81 49 -115 27z"/>
<path d="M1401 526 c-7 -8 -11 -36 -9 -63 l3 -48 54 -3 c30 -2 58 1 63 6 6 6
-10 9 -43 8 -43 -1 -54 2 -57 17 -3 14 4 17 52 17 55 0 56 1 56 28 0 15 -5 33
-12 40 -17 17 -93 15 -107 -2z m99 -26 c0 -17 -7 -20 -45 -20 -38 0 -45 3 -45
20 0 17 7 20 45 20 38 0 45 -3 45 -20z"/>
<path d="M1567 533 c-15 -14 -5 -18 45 -18 40 0 53 -4 53 -15 0 -11 -15 -16
-55 -20 -53 -5 -55 -6 -55 -35 0 -30 0 -30 63 -33 l62 -3 0 59 c0 45 -4 61
-16 66 -21 8 -89 8 -97 -1z m98 -88 c0 -17 -7 -20 -45 -20 -39 0 -45 3 -48 23
-3 22 -1 23 45 20 40 -3 48 -6 48 -23z"/>
<path d="M1722 473 l2 -68 3 58 4 57 37 0 c21 0 43 -5 50 -12 9 -9 12 -8 12 4
0 20 -21 28 -71 28 l-39 0 2 -67z"/>
</g>
</svg>
